<svg width="48" height="48" viewBox="0 0 48 48" fill="none" xmlns="http://www.w3.org/2000/svg">
<rect x="0.5" y="0.5" width="47" height="47" rx="5.5" stroke="black" stroke-opacity="0.48"/>
<path d="M21 27.75C21 27.5511 21.079 27.3603 21.2197 27.2197C21.3603 27.079 21.5511 27 21.75 27H26.25C26.4489 27 26.6397 27.079 26.7803 27.2197C26.921 27.3603 27 27.5511 27 27.75C27 27.9489 26.921 28.1397 26.7803 28.2803C26.6397 28.421 26.4489 28.5 26.25 28.5H21.75C21.5511 28.5 21.3603 28.421 21.2197 28.2803C21.079 28.1397 21 27.9489 21 27.75ZM18 23.25C18 23.0511 18.079 22.8603 18.2197 22.7197C18.3603 22.579 18.5511 22.5 18.75 22.5H29.25C29.4489 22.5 29.6397 22.579 29.7803 22.7197C29.921 22.8603 30 23.0511 30 23.25C30 23.4489 29.921 23.6397 29.7803 23.7803C29.6397 23.921 29.4489 24 29.25 24H18.75C18.5511 24 18.3603 23.921 18.2197 23.7803C18.079 23.6397 18 23.4489 18 23.25ZM15 18.75C15 18.5511 15.079 18.3603 15.2197 18.2197C15.3603 18.079 15.5511 18 15.75 18H32.25C32.4489 18 32.6397 18.079 32.7803 18.2197C32.921 18.3603 33 18.5511 33 18.75C33 18.9489 32.921 19.1397 32.7803 19.2803C32.6397 19.421 32.4489 19.5 32.25 19.5H15.75C15.5511 19.5 15.3603 19.421 15.2197 19.2803C15.079 19.1397 15 18.9489 15 18.75Z" fill="black"/>
</svg>
